<svg width="64" height="24" viewBox="0 0 64 24" fill="none" xmlns="http://www.w3.org/2000/svg">
<path d="M17.7203 14.0616L17.6598 14.2175L17.5993 14.3735L17.5388 14.5294L17.5086 14.6067L17.4783 14.6841L17.4469 14.7615L17.4155 14.8388L17.3841 14.9162L17.3527 14.9935L17.3201 15.0709L17.2875 15.1482L17.255 15.2244L17.2212 15.3005L17.1875 15.3766L17.1526 15.4527L17.1177 15.5289L17.0816 15.6038L17.0455 15.6787L17.0083 15.7536L16.9897 15.7904L16.9711 15.8272L16.9525 15.8641L16.9339 15.9009L16.9141 15.9377L16.8943 15.9746L16.8745 16.0114L16.8548 16.0483L16.835 16.0851L16.814 16.1219L16.7931 16.1588L16.7722 16.1944L16.7512 16.23L16.7303 16.2656L16.7093 16.3012L16.6872 16.3368L16.6651 16.3724L16.643 16.408L16.6209 16.4436L16.5988 16.4792L16.5767 16.5148L16.5534 16.5492L16.5302 16.5836L16.5069 16.618L16.4836 16.6524L16.4604 16.6867L16.4359 16.7211L16.4115 16.7555L16.3871 16.7899L16.3626 16.823L16.3382 16.8562L16.3138 16.8893L16.2882 16.9225L16.2626 16.9556L16.237 16.9888L16.2114 17.0219L16.1858 17.0551L16.159 17.087L16.1323 17.119L16.1055 17.1509L16.0788 17.1828L16.052 17.2147L16.0241 17.2466L15.9962 17.2773L15.9683 17.308L15.9403 17.3387L15.9124 17.3694L15.8845 17.4001L15.8554 17.4308L15.8263 17.4615L15.7972 17.491L15.7682 17.5205L15.7391 17.5499L15.71 17.5794L15.6797 17.6089L15.6495 17.6383L15.6192 17.6678L15.589 17.696L15.5587 17.7243L15.5285 17.7525L15.4971 17.7808L15.4657 17.809L15.4343 17.8372L15.4028 17.8643L15.3714 17.8913L15.34 17.9183L15.3075 17.9453L15.2749 17.9723L15.2423 17.9981L15.2097 18.0239L15.1772 18.0497L15.1446 18.0755L15.112 18.1012L15.0783 18.127L15.0445 18.1516L15.0108 18.1761L14.977 18.2007L14.9433 18.2253L14.9096 18.2498L14.8758 18.2744L14.8421 18.2977L14.8084 18.321L14.7746 18.3444L14.7409 18.3677L14.706 18.391L14.6711 18.4143L14.6362 18.4364L14.6013 18.4585L14.5664 18.4806L14.5315 18.5027L14.4966 18.5248L14.4617 18.5457L14.4268 18.5666L14.3919 18.5875L14.357 18.6083L14.3221 18.6292L14.2872 18.6489L14.2523 18.6685L14.2174 18.6882L14.1825 18.7078L14.1476 18.7274L14.1115 18.7471L14.0754 18.7655L14.0394 18.7839L14.0033 18.8023L13.9672 18.8208L13.9312 18.8392L13.8951 18.8576L13.859 18.8748L13.823 18.892L13.7869 18.9092L13.7508 18.9264L13.7148 18.9435L13.6787 18.9595L13.6426 18.9755L13.6066 18.9914L13.5705 19.0074L13.5344 19.0234L13.4984 19.0393L13.4623 19.0541L13.4263 19.0688L13.3902 19.0835L13.3541 19.0983L13.3181 19.113L13.282 19.1277L13.2459 19.1412L13.2099 19.1547L13.175 19.1682L13.1401 19.1818L13.1052 19.1953L13.0703 19.2088L13.0354 19.221L13.0005 19.2333L12.9656 19.2456L12.9307 19.2579L12.8957 19.2702L12.8608 19.2824L12.8259 19.2935L12.791 19.3045L12.7561 19.3156L12.7212 19.3266L12.6863 19.3377L12.6514 19.3487L12.6165 19.3586L12.5816 19.3684L12.5467 19.3782L12.5118 19.388L12.4769 19.3979L12.442 19.4077L12.4071 19.4163L12.3385 19.4335L12.2698 19.4507L12.2012 19.4666L12.1337 19.4826L12.0663 19.4973L11.9988 19.5108L11.9313 19.5243L11.8638 19.5366L11.7975 19.5489L11.7312 19.5599L11.6649 19.571L11.5986 19.5808L11.5323 19.5906L11.4659 19.5992L11.3996 19.6066L11.3333 19.614L11.267 19.6201L11.2019 19.6262L11.1367 19.6311L11.0716 19.6361L11.0064 19.6397L10.9413 19.6434L10.8761 19.6459L10.811 19.6483L10.7458 19.6496L10.6807 19.6508H10.6155C8.55166 19.6508 6.58554 18.7225 5.21041 17.0993C2.54044 13.9486 2.79638 9.11085 5.78164 6.29291C8.76689 3.47497 13.3506 3.7451 16.0206 6.89579H19.0768C16.4069 1.96716 10.455 0.25307 5.78164 3.07101C1.10831 5.88895 -0.515781 12.1707 2.15419 17.103C3.8888 20.3077 7.11837 22.2858 10.6155 22.2858C11.0169 22.2858 11.4194 22.2588 11.8173 22.2072C12.228 22.1532 12.6352 22.0721 13.0365 21.9653C13.3192 21.8904 13.5996 21.802 13.8753 21.7026C14.0882 21.6252 14.3 21.5405 14.5082 21.4496C14.7246 21.3551 14.9375 21.2532 15.1469 21.1439C15.3633 21.0309 15.5762 20.9094 15.7844 20.7804C15.9997 20.6466 16.2091 20.5054 16.4138 20.3544C16.6232 20.1996 16.8268 20.0363 17.0234 19.8644C17.2235 19.6889 17.4155 19.5047 17.5993 19.3119C17.7843 19.1179 17.96 18.9153 18.1275 18.7041C18.2927 18.4966 18.4486 18.2805 18.5952 18.057C18.7371 17.8409 18.8709 17.6187 18.9966 17.3915C19.0442 17.3056 19.0896 17.2196 19.135 17.1325L17.8378 13.7485L17.7203 14.0616Z" fill="#363644"/>
<path d="M63.5462 8.51414C63.5718 8.47239 63.5857 8.4245 63.5857 8.36802C63.5857 8.31277 63.5729 8.26488 63.5485 8.22436C63.5241 8.18384 63.4892 8.15315 63.4426 8.13105C63.3961 8.10894 63.3426 8.09912 63.2809 8.09912H62.9866V8.85426H63.1192V8.63447H63.2809C63.2925 8.63447 63.3019 8.63447 63.3088 8.63324L63.4543 8.85426H63.5974L63.4333 8.60623C63.4822 8.58535 63.5194 8.55466 63.5462 8.51414ZM63.2751 8.51782H63.1204V8.217H63.2751C63.3333 8.217 63.3763 8.2305 63.4066 8.25629C63.4356 8.28207 63.4508 8.31891 63.4508 8.36802C63.4508 8.41591 63.4356 8.45397 63.4066 8.47976C63.3763 8.50432 63.3333 8.51782 63.2751 8.51782Z" fill="#363644"/>
<path d="M63.2926 7.74536C62.911 7.74536 62.6003 8.0732 62.6003 8.47471C62.6003 8.87745 62.911 9.20529 63.2926 9.20529C63.6741 9.20529 63.9836 8.87745 63.9836 8.47471C63.9848 8.0732 63.6741 7.74536 63.2926 7.74536ZM63.2926 9.07513C62.9796 9.07513 62.7248 8.80623 62.7248 8.47594C62.7248 8.14564 62.9796 7.87674 63.2926 7.87674C63.6055 7.87674 63.8603 8.14564 63.8603 8.47594C63.8603 8.80623 63.6055 9.07513 63.2926 9.07513Z" fill="#363644"/>
<path d="M12.6655 11.1293C12.84 10.8285 12.9284 10.4847 12.9284 10.1004C12.9284 9.4668 12.6841 8.96584 12.1943 8.59625C11.7045 8.22667 11.003 8.04126 10.0886 8.04126H6.05859V15.9597H10.3026C11.281 15.9597 12.0268 15.7731 12.5375 15.3998C13.0482 15.0266 13.3042 14.4924 13.3042 13.7987C13.3042 13.3088 13.182 12.895 12.94 12.5598C12.6969 12.2246 12.3607 11.9851 11.9325 11.8415C12.2455 11.6696 12.4898 11.4314 12.6655 11.1293ZM8.35279 9.96409H10.0886C10.3096 9.96409 10.4771 10.0046 10.5912 10.0832C10.7052 10.163 10.7622 10.2821 10.7622 10.4417C10.7622 10.6013 10.7052 10.7217 10.5912 10.8039C10.4771 10.8862 10.3096 10.9267 10.0886 10.9267H8.35279V9.96409ZM10.9506 13.9104C10.8262 13.9952 10.64 14.0381 10.3934 14.0381H8.35279V12.9846H10.3934C10.8901 12.9846 11.1379 13.1614 11.1379 13.5151C11.1379 13.6931 11.0751 13.8245 10.9506 13.9104Z" fill="#363644"/>
<path d="M16.345 8.04126C15.3329 10.6812 14.3207 13.3211 13.3086 15.9597H15.7843C16.4695 14.172 17.1548 12.3854 17.84 10.5977C18.5252 12.3854 19.2105 14.172 19.8957 15.9597H22.3714C21.3592 13.3198 20.3471 10.6799 19.3349 8.04126H16.345Z" fill="#363644"/>
<path d="M25.2429 8.04126H22.9731V15.961H28.6598V13.8687H25.2429V8.04126Z" fill="#363644"/>
<path d="M31.6377 8.04126H29.3679V15.9597H31.6377V8.04126Z" fill="#363644"/>
<path d="M37.3895 11.4437C37.0359 11.3049 36.5845 11.1735 36.0493 11.0532C35.5956 10.9513 35.2664 10.8543 35.0721 10.7634C34.8824 10.6762 34.8824 10.578 34.8824 10.5301C34.8824 10.4503 34.9022 10.346 35.0523 10.2428C35.15 10.1753 35.3571 10.0967 35.7875 10.0967C36.3692 10.0967 36.98 10.2772 37.6059 10.6333L37.813 10.7511L38.5774 8.80744L38.418 8.70921C38.0643 8.48943 37.6513 8.32121 37.1906 8.20825C36.7345 8.09651 36.2657 8.04126 35.798 8.04126C35.1058 8.04126 34.5101 8.15299 34.0273 8.37278C33.5341 8.59748 33.1548 8.91058 32.9024 9.3035C32.6487 9.69764 32.5196 10.1458 32.5196 10.6357C32.5196 11.1981 32.6639 11.6561 32.9489 11.995C33.2223 12.3216 33.5538 12.561 33.9343 12.7096C34.2903 12.8483 34.7393 12.9797 35.2675 13.1C35.7247 13.2069 36.0586 13.3088 36.2599 13.4046C36.4332 13.4856 36.4565 13.5826 36.4565 13.6649C36.4565 13.9718 35.9586 14.0357 35.5409 14.0357C35.1686 14.0357 34.7835 13.9718 34.3961 13.8466C34.0087 13.7213 33.6644 13.5544 33.3735 13.3518L33.1641 13.2056L32.3474 15.1407L32.4905 15.2463C32.8384 15.5042 33.2944 15.7117 33.8447 15.864C34.388 16.0138 34.9546 16.0899 35.5304 16.0899C36.2157 16.0899 36.8102 15.9769 37.2965 15.7534C37.7932 15.5251 38.1725 15.212 38.425 14.824C38.6797 14.4323 38.8089 13.989 38.8089 13.5065C38.8089 12.9429 38.6623 12.4873 38.3726 12.1509C38.0969 11.8292 37.7665 11.591 37.3895 11.4437Z" fill="#363644"/>
<path d="M41.3405 8.04126H39.1626V10.1286H41.3405V15.961H41.3602H43.6044H43.6114V10.1286H45.7893V8.04126H43.6114H41.3405Z" fill="#363644"/>
<path d="M52.4241 8.55819C51.8122 8.21562 51.1153 8.04126 50.351 8.04126C49.5878 8.04126 48.8898 8.21562 48.2778 8.55819C47.6624 8.90322 47.1726 9.38699 46.8213 9.99724C46.4699 10.6087 46.2908 11.3037 46.2908 12.0662C46.2908 12.8287 46.4688 13.5237 46.8213 14.1351C47.1726 14.7454 47.6636 15.2291 48.2778 15.5742C48.8898 15.9168 49.5866 16.0911 50.351 16.0911C51.1142 16.0911 51.8122 15.9168 52.4241 15.5742C53.0396 15.2291 53.5294 14.7454 53.8807 14.1351C54.2332 13.5237 54.4112 12.8287 54.4112 12.0662C54.4112 11.3049 54.2332 10.6087 53.8807 9.99724C53.5305 9.38699 53.0396 8.90322 52.4241 8.55819ZM51.7878 13.0485C51.64 13.3321 51.4457 13.5445 51.1944 13.6992C50.9455 13.8527 50.6616 13.9301 50.3522 13.9301C50.0415 13.9301 49.7588 13.8527 49.5087 13.6992C49.2574 13.5445 49.0631 13.3321 48.9154 13.0485C48.7688 12.7673 48.6943 12.437 48.6943 12.0662C48.6943 11.6954 48.7688 11.3651 48.9154 11.0827C49.0631 10.8003 49.2562 10.5866 49.5087 10.4319C49.7577 10.2784 50.0415 10.2011 50.3522 10.2011C50.6616 10.2011 50.9455 10.2784 51.1944 10.4319C51.4469 10.5866 51.64 10.799 51.7878 11.0827C51.9344 11.3651 52.0088 11.6954 52.0088 12.0662C52.0088 12.4358 51.9344 12.7673 51.7878 13.0485Z" fill="#363644"/>
<path d="M59.6149 11.5382L56.8704 8.04126H55.0137V15.961H57.2893V12.3007L60.0349 15.961H61.8928V8.04126H59.6149V11.5382Z" fill="#363644"/>
</svg>
