<svg width="482" height="446" viewBox="0 0 482 446" fill="none" xmlns="http://www.w3.org/2000/svg">
<path d="M377.741 267.695L376.385 271.076L375.029 274.456L373.673 277.837L372.995 279.514L372.317 281.191L371.613 282.868L370.909 284.546L370.205 286.223L369.501 287.9L368.77 289.577L368.04 291.254L367.31 292.904L366.554 294.555L365.797 296.205L365.015 297.856L364.233 299.506L363.424 301.13L362.616 302.754L361.781 304.378L361.364 305.177L360.947 305.975L360.53 306.774L360.112 307.572L359.669 308.371L359.226 309.17L358.782 309.968L358.339 310.767L357.896 311.566L357.426 312.364L356.957 313.163L356.487 313.935L356.018 314.707L355.549 315.479L355.079 316.251L354.584 317.023L354.088 317.795L353.593 318.567L353.097 319.339L352.602 320.111L352.106 320.883L351.585 321.628L351.063 322.374L350.541 323.119L350.02 323.864L349.498 324.61L348.951 325.355L348.403 326.1L347.855 326.846L347.308 327.565L346.76 328.283L346.212 329.002L345.639 329.721L345.065 330.44L344.491 331.158L343.917 331.877L343.344 332.596L342.744 333.288L342.144 333.98L341.544 334.672L340.945 335.364L340.345 336.057L339.719 336.749L339.093 337.414L338.467 338.08L337.841 338.745L337.215 339.411L336.589 340.076L335.937 340.742L335.286 341.407L334.634 342.046L333.982 342.685L333.33 343.324L332.678 343.963L332 344.602L331.322 345.241L330.644 345.88L329.966 346.492L329.287 347.104L328.609 347.716L327.905 348.329L327.201 348.941L326.497 349.553L325.793 350.139L325.089 350.725L324.385 351.31L323.655 351.896L322.924 352.482L322.194 353.041L321.464 353.6L320.734 354.159L320.004 354.718L319.273 355.277L318.517 355.836L317.761 356.368L317.005 356.901L316.248 357.433L315.492 357.965L314.736 358.498L313.979 359.03L313.223 359.536L312.467 360.042L311.711 360.548L310.954 361.053L310.172 361.559L309.39 362.065L308.607 362.544L307.825 363.023L307.043 363.502L306.26 363.982L305.478 364.461L304.695 364.913L303.913 365.366L303.131 365.818L302.348 366.271L301.566 366.724L300.784 367.15L300.001 367.575L299.219 368.001L298.437 368.427L297.654 368.853L296.846 369.279L296.037 369.679L295.229 370.078L294.421 370.477L293.612 370.876L292.804 371.276L291.995 371.675L291.187 372.048L290.378 372.42L289.57 372.793L288.762 373.166L287.953 373.539L287.145 373.885L286.336 374.231L285.528 374.577L284.719 374.923L283.911 375.269L283.103 375.615L282.294 375.934L281.486 376.254L280.677 376.573L279.869 376.893L279.06 377.212L278.252 377.532L277.443 377.824L276.635 378.117L275.853 378.41L275.07 378.703L274.288 378.996L273.506 379.289L272.723 379.555L271.941 379.821L271.159 380.087L270.376 380.353L269.594 380.62L268.812 380.886L268.029 381.125L267.247 381.365L266.464 381.605L265.682 381.844L264.9 382.084L264.117 382.323L263.335 382.536L262.553 382.749L261.77 382.962L260.988 383.175L260.206 383.388L259.423 383.601L258.641 383.787L257.102 384.16L255.564 384.533L254.025 384.879L252.512 385.225L251 385.544L249.487 385.837L247.975 386.13L246.462 386.396L244.976 386.662L243.489 386.902L242.003 387.142L240.516 387.355L239.03 387.568L237.543 387.754L236.057 387.914L234.57 388.073L233.084 388.206L231.624 388.34L230.163 388.446L228.703 388.553L227.242 388.632L225.782 388.712L224.322 388.766L222.861 388.819L221.401 388.845L219.94 388.872H218.48C172.217 388.872 128.144 368.747 97.3194 333.554C37.4693 265.246 43.2065 160.36 110.124 99.2657C177.041 38.1712 279.79 44.0277 339.641 112.336H408.149C348.299 5.481 214.881 -31.6815 110.124 29.413C5.36665 90.5074 -31.0389 226.699 28.8112 333.634C67.6942 403.114 140.088 446 218.48 446C227.477 446 236.5 445.414 245.419 444.296C254.625 443.125 263.752 441.368 272.749 439.052C279.086 437.428 285.371 435.511 291.552 433.355C296.324 431.678 301.071 429.841 305.739 427.871C310.589 425.821 315.362 423.612 320.056 421.243C324.906 418.794 329.679 416.158 334.347 413.363C339.171 410.461 343.865 407.4 348.455 404.126C353.149 400.771 357.713 397.231 362.12 393.504C366.606 389.697 370.909 385.704 375.029 381.525C379.176 377.319 383.113 372.926 386.869 368.347C390.572 363.849 394.066 359.163 397.352 354.318C400.534 349.633 403.533 344.815 406.349 339.89C407.419 338.027 408.436 336.163 409.453 334.273L380.375 260.906L377.741 267.695Z" fill="#212323"/>
<path d="M264.433 204.124C268.345 197.602 270.327 190.148 270.327 181.816C270.327 168.079 264.851 157.218 253.872 149.205C242.893 141.193 227.167 137.173 206.67 137.173H116.334V308.85H211.468C233.4 308.85 250.116 304.803 261.565 296.711C273.013 288.618 278.751 277.038 278.751 261.997C278.751 251.376 276.012 242.404 270.588 235.137C265.138 227.87 257.601 222.678 248.004 219.564C255.019 215.837 260.496 210.673 264.433 204.124ZM167.761 178.861H206.67C211.625 178.861 215.38 179.739 217.935 181.443C220.491 183.173 221.769 185.756 221.769 189.216C221.769 192.677 220.491 195.286 217.935 197.069C215.38 198.853 211.625 199.731 206.67 199.731H167.761V178.861ZM225.994 264.42C223.203 266.257 219.031 267.188 213.502 267.188H167.761V244.348H213.502C224.638 244.348 230.192 248.181 230.192 255.848C230.192 259.708 228.784 262.556 225.994 264.42Z" fill="#212323"/>
<path d="M346.914 137.173C324.226 194.407 301.538 251.642 278.85 308.85H334.345C349.705 270.09 365.065 231.357 380.425 192.597C395.785 231.357 411.146 270.09 426.506 308.85H482.001C459.313 251.615 436.624 194.381 413.936 137.173H346.914Z" fill="#212323"/>
<path d="M471.356 140.554C471.93 139.649 472.243 138.611 472.243 137.387C472.243 136.189 471.956 135.15 471.408 134.272C470.861 133.393 470.078 132.728 469.035 132.249C467.992 131.77 466.792 131.557 465.41 131.557H458.812V147.928H461.785V143.163H465.41C465.671 143.163 465.88 143.163 466.036 143.137L469.296 147.928H472.504L468.827 142.551C469.922 142.098 470.756 141.433 471.356 140.554ZM465.28 140.634H461.811V134.112H465.28C466.584 134.112 467.549 134.405 468.227 134.964C468.879 135.523 469.218 136.322 469.218 137.387C469.218 138.425 468.879 139.25 468.227 139.809C467.549 140.341 466.584 140.634 465.28 140.634Z" fill="#212323"/>
<path d="M465.672 123.89C457.118 123.89 450.155 130.997 450.155 139.702C450.155 148.434 457.118 155.542 465.672 155.542C474.225 155.542 481.162 148.434 481.162 139.702C481.188 130.997 474.225 123.89 465.672 123.89ZM465.672 152.72C458.656 152.72 452.945 146.89 452.945 139.729C452.945 132.568 458.656 126.738 465.672 126.738C472.687 126.738 478.398 132.568 478.398 139.729C478.398 146.89 472.687 152.72 465.672 152.72Z" fill="#212323"/>
</svg>
